<svg id="bullseye" xmlns="http://www.w3.org/2000/svg" width="58.458" height="58.458" viewBox="0 0 58.458 58.458">
  <path id="Path_263" data-name="Path 263" d="M29.229,54.8A25.575,25.575,0,1,1,54.8,29.229,25.575,25.575,0,0,1,29.229,54.8Zm0,3.654A29.229,29.229,0,1,0,0,29.229,29.229,29.229,0,0,0,29.229,58.458Z" fill="#263766"/>
  <path id="Path_264" data-name="Path 264" d="M23.922,42.19A18.268,18.268,0,1,1,42.19,23.922,18.268,18.268,0,0,1,23.922,42.19Zm0,3.654A21.922,21.922,0,1,0,2,23.922,21.922,21.922,0,0,0,23.922,45.843Z" transform="translate(5.307 5.307)" fill="#263766"/>
  <path id="Path_265" data-name="Path 265" d="M18.614,29.575A10.961,10.961,0,1,1,29.575,18.614,10.961,10.961,0,0,1,18.614,29.575Zm0,3.654A14.614,14.614,0,1,0,4,18.614,14.614,14.614,0,0,0,18.614,33.229Z" transform="translate(10.614 10.614)" fill="#263766"/>
  <path id="Path_266" data-name="Path 266" d="M17.461,11.98A5.48,5.48,0,1,1,11.98,6.5,5.48,5.48,0,0,1,17.461,11.98Z" transform="translate(17.248 17.248)" fill="#ab0d4d"/>
</svg>
