<svg id="chat-square-heart" xmlns="http://www.w3.org/2000/svg" width="58.458" height="56.021" viewBox="0 0 58.458 56.021">
  <path id="Path_261" data-name="Path 261" d="M51.15,3.654A3.654,3.654,0,0,1,54.8,7.307V36.536A3.654,3.654,0,0,1,51.15,40.19H42.016a7.307,7.307,0,0,0-5.846,2.923l-6.942,9.255-6.942-9.255a7.307,7.307,0,0,0-5.846-2.923H7.307a3.654,3.654,0,0,1-3.654-3.654V7.307A3.654,3.654,0,0,1,7.307,3.654ZM7.307,0A7.307,7.307,0,0,0,0,7.307V36.536a7.307,7.307,0,0,0,7.307,7.307h9.134A3.654,3.654,0,0,1,19.364,45.3l6.942,9.255a3.654,3.654,0,0,0,5.846,0L39.093,45.3a3.654,3.654,0,0,1,2.923-1.461H51.15a7.307,7.307,0,0,0,7.307-7.307V7.307A7.307,7.307,0,0,0,51.15,0Z" fill="#263766"/>
  <path id="Path_262" data-name="Path 262" d="M15.96,5.3c6.08-6.251,21.282,4.688,0,18.75C-5.322,9.985,9.881-.95,15.96,5.3Z" transform="translate(13.269 9.288)" fill="#ab0d4d"/>
</svg>
