<svg id="Group_87" data-name="Group 87" xmlns="http://www.w3.org/2000/svg" width="105.997" height="66.389" viewBox="0 0 105.997 66.389">
  <path id="Path_240" data-name="Path 240" d="M84.137,23.947a4.459,4.459,0,0,0,.044-6.369,4.577,4.577,0,0,0-6.473,6.472,4.418,4.418,0,0,0,6.429-.1M59.283,8.513a16.2,16.2,0,0,0-22.012,23.73L64.849,59.82,92.426,32.243A16.2,16.2,0,0,0,69.512,9.337C64.829,14.02,62.5,22.854,67.771,27.973a10.608,10.608,0,0,0,11.738,1.951,9.222,9.222,0,1,1,10.631-9.8,14.916,14.916,0,0,1-4.375,11.007,15.2,15.2,0,0,1-21.223.165c-7.173-6.963-4.869-18.686,1.686-25.242a21,21,0,0,1,29.482,0,20.9,20.9,0,0,1,0,29.472L84.218,47.02l12.8,12.8L124.6,32.243a16.2,16.2,0,0,0-22.012-23.73,17.7,17.7,0,0,0-3-3.547,20.84,20.84,0,0,1,28.3,30.562L97.019,66.389,80.934,50.3,64.849,66.389,33.987,35.527a20.84,20.84,0,0,1,28.3-30.562,17.674,17.674,0,0,0-3,3.547" transform="translate(-27.935 0)" fill="#e0eefb" fill-rule="evenodd"/>
</svg>
