<svg xmlns="http://www.w3.org/2000/svg" width="152.57" height="20.467" viewBox="0 0 152.57 20.467">
  <path id="Path_244" data-name="Path 244" d="M127.3,93.739H105.926v20.467H127.3v-3.557H110.389v-4.9H127.3v-3.556H110.389V97.3H127.3ZM46.125,110.372l1.673,3.833h4.464L43.326,93.739h-3.5l-8.936,20.466h4.464l1.673-3.833Zm-1.553-3.556h-6l3-6.865Zm15.395-4.62h10.9a2.452,2.452,0,1,0,0-4.9h-10.9ZM55.5,93.739H70.871A6,6,0,0,1,72.7,105.464a11.919,11.919,0,0,1,4.176,8.741H73.319c-.138-4.929-4.654-8.455-9.438-8.455H59.967v8.455H55.5Zm-37.827,8.47-5.237,12h-3.5L0,93.739H4.464l6.224,14.253,6.224-14.253h1.53l6.224,14.253,6.224-14.253h4.463l-8.935,20.466h-3.5Zm117.983,8.443h6.678a6.679,6.679,0,1,0,0-13.358h-6.678ZM131.2,93.739h11.141a10.233,10.233,0,0,1,0,20.467H131.2Zm-29.108,0H80.715v20.467h21.374v-3.557H85.179v-4.9h16.91v-3.556H85.179V97.3h16.91Z" transform="translate(0 -93.739)" fill="#fff" fill-rule="evenodd"/>
</svg>
