<svg id="Group_1952" data-name="Group 1952" xmlns="http://www.w3.org/2000/svg" width="152.57" height="98.606" viewBox="0 0 152.57 98.606">
  <path id="Path_238" data-name="Path 238" d="M127.3,93.739H105.926v20.467H127.3v-3.557H110.389v-4.9H127.3v-3.556H110.389V97.3H127.3ZM46.125,110.372l1.673,3.833h4.464L43.326,93.739h-3.5l-8.936,20.466h4.464l1.673-3.833Zm-1.553-3.556h-6l3-6.865Zm15.395-4.62h10.9a2.452,2.452,0,1,0,0-4.9h-10.9ZM55.5,93.739H70.871A6,6,0,0,1,72.7,105.464a11.919,11.919,0,0,1,4.176,8.741H73.319c-.138-4.929-4.654-8.455-9.438-8.455H59.967v8.455H55.5Zm-37.827,8.47-5.237,12h-3.5L0,93.739H4.464l6.224,14.253,6.224-14.253h1.53l6.224,14.253,6.224-14.253h4.463l-8.935,20.466h-3.5Zm117.983,8.443h6.678a6.679,6.679,0,1,0,0-13.358h-6.678ZM131.2,93.739h11.141a10.233,10.233,0,0,1,0,20.467H131.2Zm-29.108,0H80.715v20.467h21.374v-3.557H85.179v-4.9h16.91v-3.556H85.179V97.3h16.91Z" transform="translate(0 -15.6)" fill="#3b72b7" fill-rule="evenodd"/>
  <path id="Path_239" data-name="Path 239" d="M94.27,27.638a5.358,5.358,0,0,0,.053-7.654,5.5,5.5,0,0,0-7.779,7.778,5.309,5.309,0,0,0,7.726-.124" transform="translate(-14.136 -3.059)" fill="#b40043" fill-rule="evenodd"/>
  <path id="Path_240" data-name="Path 240" d="M84.137,23.947a4.459,4.459,0,0,0,.044-6.369,4.577,4.577,0,0,0-6.473,6.472,4.418,4.418,0,0,0,6.429-.1M59.283,8.513a16.2,16.2,0,0,0-22.012,23.73L64.849,59.82,92.426,32.243A16.2,16.2,0,0,0,69.512,9.337C64.829,14.02,62.5,22.854,67.771,27.973a10.608,10.608,0,0,0,11.738,1.951,9.222,9.222,0,1,1,10.631-9.8,14.916,14.916,0,0,1-4.375,11.007,15.2,15.2,0,0,1-21.223.165c-7.173-6.963-4.869-18.686,1.686-25.242a21,21,0,0,1,29.482,0,20.9,20.9,0,0,1,0,29.472L84.218,47.02l12.8,12.8L124.6,32.243a16.2,16.2,0,0,0-22.012-23.73,17.7,17.7,0,0,0-3-3.547,20.84,20.84,0,0,1,28.3,30.562L97.019,66.389,80.934,50.3,64.849,66.389,33.987,35.527a20.84,20.84,0,0,1,28.3-30.562,17.674,17.674,0,0,0-3,3.547" transform="translate(-4.649 0)" fill="#3b72b7" fill-rule="evenodd"/>
</svg>
