<svg xmlns="http://www.w3.org/2000/svg" width="361.268" height="361.268" viewBox="0 0 361.268 361.268">
  <path id="Path_267" data-name="Path 267" d="M181.76,113.213c8.2-8.724,8.874-21.453.209-30.117a21.643,21.643,0,0,0-30.61,30.606,20.892,20.892,0,0,0,30.4-.489M90.544,282.859,220.959,152.444a76.794,76.794,0,0,0,0-108.312C191.288,14.461,142.276,14.441,112.6,44.12c-22.146,22.146-33.172,63.924-8.231,88.132a50.165,50.165,0,0,0,55.508,9.228A43.611,43.611,0,1,1,210.15,95.127c1.376,18.646-7.659,39.014-20.692,52.051-27.425,27.421-72.526,27.8-100.365.781C55.172,115.03,66.068,59.589,97.069,28.589c38.112-38.112,101.315-38.1,139.422.012,38.321,38.321,38.317,101.058,0,139.375-42.687,42.454-7.171,8.071-78.991,78.995L90.544,313.922" transform="translate(187.537 409.523) rotate(-135)" fill-rule="evenodd" opacity="0.05" style="mix-blend-mode: multiply;isolation: isolate"/>
</svg>
