<svg xmlns="http://www.w3.org/2000/svg" width="313.874" height="313.874" viewBox="0 0 313.874 313.874">
  <path id="Path_268" data-name="Path 268" d="M166.866,98.362c7.127-7.579,7.71-18.638.182-26.166a18.8,18.8,0,0,0-26.594,26.591,18.152,18.152,0,0,0,26.413-.425M87.617,245.753,200.923,132.447a66.72,66.72,0,0,0,0-94.1c-25.779-25.779-68.361-25.8-94.147-.01C87.535,57.575,77.955,93.872,99.625,114.9a43.584,43.584,0,0,0,48.226,8.018,37.89,37.89,0,1,1,43.681-40.273c1.2,16.2-6.655,33.9-17.977,45.222-23.827,23.824-63.011,24.152-87.2.678-29.471-28.608-20-76.776,6.929-103.71,33.112-33.112,88.024-33.1,121.132.01a85.891,85.891,0,0,1,0,121.091c-37.087,36.885-6.23,7.012-68.629,68.632L87.617,272.742" transform="translate(144.611 -48.255) rotate(45)" fill-rule="evenodd" opacity="0.05" style="mix-blend-mode: multiply;isolation: isolate"/>
</svg>
