<svg xmlns="http://www.w3.org/2000/svg" width="215.659" height="215.659" viewBox="0 0 215.659 215.659">
  <path id="Path_241" data-name="Path 241" d="M136,67.587c4.9-5.208,5.3-12.806.125-17.979a12.92,12.92,0,0,0-18.273,18.27A12.472,12.472,0,0,0,136,67.587M81.551,168.858,159.4,91.007A45.733,45.733,0,0,0,94.715,26.343c-13.22,13.22-19.8,38.16-4.914,52.611a29.946,29.946,0,0,0,33.136,5.509,26.034,26.034,0,1,1,30.013-27.671c.821,11.131-4.572,23.29-12.352,31.072a42.913,42.913,0,0,1-59.913.466C60.435,68.672,66.94,35.577,85.445,17.071c22.751-22.751,60.48-22.741,83.228.007a59.015,59.015,0,0,1,0,83.2c-25.482,25.343-4.28,4.818-47.154,47.156L81.551,187.4" transform="translate(84.266 -48.255) rotate(45)" fill-rule="evenodd" opacity="0.05" style="mix-blend-mode: multiply;isolation: isolate"/>
</svg>
