<svg xmlns="http://www.w3.org/2000/svg" width="43.848" height="58.457" viewBox="0 0 43.848 58.457">
  <path id="stars_2_" data-name="stars (2)" d="M25.324,22.82a1.32,1.32,0,0,1,2.506,0L30.187,29.9a10.559,10.559,0,0,0,6.682,6.679l7.073,2.357a1.32,1.32,0,0,1,0,2.506L36.866,43.8a10.559,10.559,0,0,0-6.679,6.682L27.83,57.551a1.319,1.319,0,0,1-2.506,0l-2.357-7.077A10.559,10.559,0,0,0,16.289,43.8L9.212,41.439a1.319,1.319,0,0,1,0-2.506l7.077-2.357A10.559,10.559,0,0,0,22.967,29.9l2.357-7.077ZM11.21,4.19a.793.793,0,0,1,1.505,0l1.414,4.245a6.342,6.342,0,0,0,4.008,4.008l4.245,1.414a.793.793,0,0,1,0,1.505l-4.245,1.414a6.335,6.335,0,0,0-4.008,4.008L12.716,25.03a.793.793,0,0,1-1.505,0L9.8,20.785a6.335,6.335,0,0,0-4.008-4.008L1.543,15.363a.793.793,0,0,1,0-1.505l4.245-1.414A6.335,6.335,0,0,0,9.8,8.436ZM37.037.358a.53.53,0,0,1,1,0l.943,2.828A4.219,4.219,0,0,0,41.656,5.86l2.828.943a.53.53,0,0,1,0,1l-2.828.943a4.224,4.224,0,0,0-2.674,2.674l-.943,2.828a.53.53,0,0,1-1,0l-.943-2.828A4.224,4.224,0,0,0,33.42,8.746L30.6,7.8a.53.53,0,0,1,0-1l2.828-.943A4.219,4.219,0,0,0,36.1,3.186L37.037.361Z" transform="translate(-0.999 -0.001)" fill="#fff"/>
</svg>
