<svg id="Group_1971" data-name="Group 1971" xmlns="http://www.w3.org/2000/svg" width="152.57" height="114.8" viewBox="0 0 152.57 114.8">
  <path id="Path_237" data-name="Path 237" d="M82.972,129.8h1.617a.663.663,0,0,1,.661.662v1.617a.663.663,0,0,1-.661.661H82.972a.663.663,0,0,1-.661-.661v-1.617a.663.663,0,0,1,.661-.662m6.2,0h1.617a.663.663,0,0,1,.661.662v1.617a.663.663,0,0,1-.661.661H89.175a.663.663,0,0,1-.661-.661v-1.617a.663.663,0,0,1,.661-.662m6.2,0h1.617a.663.663,0,0,1,.661.662v1.617a.663.663,0,0,1-.661.661H95.377a.663.663,0,0,1-.661-.661v-1.617a.663.663,0,0,1,.661-.662m68.58,2.894-.841,2.327a.326.326,0,0,1-.216.173,1.675,1.675,0,0,1-.522.059,1.883,1.883,0,0,1-.294-.017.442.442,0,0,1-.173-.06.157.157,0,0,1-.065-.112.381.381,0,0,1,.033-.171l.873-2.2a.35.35,0,0,1-.12-.091.32.32,0,0,1-.077-.134l-2.255-6.037a.684.684,0,0,1-.055-.233.165.165,0,0,1,.055-.134.353.353,0,0,1,.183-.067,2.42,2.42,0,0,1,.338-.018c.139,0,.249,0,.331.01a.693.693,0,0,1,.189.041.194.194,0,0,1,.1.079,1.031,1.031,0,0,1,.068.143l1.8,5.069h.022l1.74-5.095a.3.3,0,0,1,.1-.173.444.444,0,0,1,.177-.057,2.462,2.462,0,0,1,.345-.018,2.284,2.284,0,0,1,.323.018.36.36,0,0,1,.185.067.161.161,0,0,1,.059.134.763.763,0,0,1-.04.211Zm-4.266-1.9a2,2,0,0,1-.18.865,1.764,1.764,0,0,1-.508.637,2.3,2.3,0,0,1-.786.393,3.56,3.56,0,0,1-1,.134,3.693,3.693,0,0,1-.642-.053,3.466,3.466,0,0,1-.548-.132,2.86,2.86,0,0,1-.41-.165,1.212,1.212,0,0,1-.244-.156.381.381,0,0,1-.113-.2,1.3,1.3,0,0,1-.036-.345,1.5,1.5,0,0,1,.014-.223,1.128,1.128,0,0,1,.033-.148.167.167,0,0,1,.06-.082.159.159,0,0,1,.088-.023.494.494,0,0,1,.228.1c.1.063.225.133.371.207a3.369,3.369,0,0,0,.522.206,2.281,2.281,0,0,0,.693.1,2.012,2.012,0,0,0,.532-.065,1.217,1.217,0,0,0,.414-.187.836.836,0,0,0,.271-.314,1.013,1.013,0,0,0,.093-.453.719.719,0,0,0-.137-.448,1.3,1.3,0,0,0-.359-.323,3,3,0,0,0-.505-.249c-.187-.072-.378-.148-.578-.228s-.39-.17-.579-.271a2.259,2.259,0,0,1-.508-.368,1.72,1.72,0,0,1-.359-.52,1.743,1.743,0,0,1-.137-.724,1.813,1.813,0,0,1,.144-.711,1.645,1.645,0,0,1,.431-.6,2.205,2.205,0,0,1,.721-.412,2.977,2.977,0,0,1,1.009-.153,3.054,3.054,0,0,1,.505.043,3.451,3.451,0,0,1,.456.111,2.056,2.056,0,0,1,.347.141,1.489,1.489,0,0,1,.218.137.411.411,0,0,1,.1.1.313.313,0,0,1,.036.1c.007.033.014.077.021.127a1.38,1.38,0,0,1,.01.189,1.643,1.643,0,0,1-.01.206.473.473,0,0,1-.036.142.189.189,0,0,1-.059.082.138.138,0,0,1-.077.023.382.382,0,0,1-.184-.079,3.084,3.084,0,0,0-.309-.165,3.182,3.182,0,0,0-.446-.165,2,2,0,0,0-.587-.079,1.782,1.782,0,0,0-.52.068.959.959,0,0,0-.368.187.786.786,0,0,0-.218.289.873.873,0,0,0-.074.362.745.745,0,0,0,.142.46,1.3,1.3,0,0,0,.364.326,3.193,3.193,0,0,0,.513.254c.192.074.386.151.584.229s.4.17.589.268a2.206,2.206,0,0,1,.515.358,1.611,1.611,0,0,1,.362.505,1.663,1.663,0,0,1,.137.7m-7.245-1.162h-.989a3.661,3.661,0,0,0-.827.082,1.713,1.713,0,0,0-.582.239,1,1,0,0,0-.34.378,1.164,1.164,0,0,0-.108.51,1.018,1.018,0,0,0,.311.784,1.232,1.232,0,0,0,.874.293,1.61,1.61,0,0,0,.844-.233,3.613,3.613,0,0,0,.817-.709Zm1.15,2.894a.154.154,0,0,1-.055.127.38.38,0,0,1-.156.063,1.429,1.429,0,0,1-.287.022,1.57,1.57,0,0,1-.29-.022.34.34,0,0,1-.158-.063.155.155,0,0,1-.05-.127V131.9a3.078,3.078,0,0,1-.923.688,2.491,2.491,0,0,1-1.078.242,2.935,2.935,0,0,1-.9-.129,1.978,1.978,0,0,1-.688-.376,1.709,1.709,0,0,1-.443-.6,2.008,2.008,0,0,1-.158-.814,1.874,1.874,0,0,1,.218-.928,1.768,1.768,0,0,1,.625-.654,3.079,3.079,0,0,1,1-.391,6.242,6.242,0,0,1,1.327-.129h.872v-.493a2.535,2.535,0,0,0-.077-.647,1.118,1.118,0,0,0-.249-.467,1.057,1.057,0,0,0-.446-.281,2.041,2.041,0,0,0-.673-.1,2.615,2.615,0,0,0-.767.1,4.06,4.06,0,0,0-.6.228c-.17.084-.313.158-.428.228a.559.559,0,0,1-.254.1.163.163,0,0,1-.1-.029.2.2,0,0,1-.074-.083.423.423,0,0,1-.046-.142,1.256,1.256,0,0,1-.014-.194,1.2,1.2,0,0,1,.024-.275.4.4,0,0,1,.119-.192,1.621,1.621,0,0,1,.326-.215,3.685,3.685,0,0,1,.534-.228,5.072,5.072,0,0,1,.659-.17,4.232,4.232,0,0,1,1.878.087,1.862,1.862,0,0,1,.772.455,1.744,1.744,0,0,1,.426.74,3.575,3.575,0,0,1,.134,1.032Zm-7.7-3.785a2.111,2.111,0,0,0-.4-1.435,1.535,1.535,0,0,0-1.263-.52,1.657,1.657,0,0,0-.754.161,1.611,1.611,0,0,0-.542.431,1.946,1.946,0,0,0-.338.62,2.658,2.658,0,0,0-.134.743Zm1.165.343a.491.491,0,0,1-.137.391.473.473,0,0,1-.313.115h-4.15a3.914,3.914,0,0,0,.106.948,1.8,1.8,0,0,0,.352.726,1.571,1.571,0,0,0,.637.463,2.553,2.553,0,0,0,.964.163,3.847,3.847,0,0,0,.8-.073,4.72,4.72,0,0,0,.609-.163c.17-.06.311-.115.422-.163a.653.653,0,0,1,.248-.075.161.161,0,0,1,.089.024.154.154,0,0,1,.058.074.5.5,0,0,1,.033.134,1.959,1.959,0,0,1,.009.213c0,.06,0,.113-.007.158s-.01.083-.017.117a.305.305,0,0,1-.036.1.433.433,0,0,1-.063.079,1.037,1.037,0,0,1-.228.125,3.32,3.32,0,0,1-.491.173,6.973,6.973,0,0,1-.7.148,5,5,0,0,1-.843.067,3.885,3.885,0,0,1-1.364-.218,2.516,2.516,0,0,1-.984-.644,2.764,2.764,0,0,1-.6-1.076,4.958,4.958,0,0,1-.2-1.5,4.706,4.706,0,0,1,.211-1.464,3.085,3.085,0,0,1,.606-1.1,2.664,2.664,0,0,1,.958-.694,3.148,3.148,0,0,1,1.255-.242,3.006,3.006,0,0,1,1.265.239,2.4,2.4,0,0,1,.861.642,2.592,2.592,0,0,1,.493.949,4.125,4.125,0,0,1,.158,1.162ZM136.9,132.054a1.438,1.438,0,0,1-.028.323.338.338,0,0,1-.084.175.487.487,0,0,1-.168.105,1.367,1.367,0,0,1-.257.082c-.1.022-.2.038-.3.053a2.675,2.675,0,0,1-1.162-.108,1.39,1.39,0,0,1-.575-.393,1.655,1.655,0,0,1-.325-.666,3.928,3.928,0,0,1-.1-.949v-3.684h-.889a.2.2,0,0,1-.17-.113.8.8,0,0,1-.063-.366,1.209,1.209,0,0,1,.017-.223.791.791,0,0,1,.046-.153.2.2,0,0,1,.074-.083.21.21,0,0,1,.1-.024h.881v-1.5a.167.167,0,0,1,.024-.091.2.2,0,0,1,.093-.074.579.579,0,0,1,.179-.046,2.367,2.367,0,0,1,.283-.014,2.419,2.419,0,0,1,.288.014.567.567,0,0,1,.178.046.22.22,0,0,1,.091.074.152.152,0,0,1,.029.091v1.5h1.61a.189.189,0,0,1,.1.024.212.212,0,0,1,.072.083.5.5,0,0,1,.046.153,1.515,1.515,0,0,1,.014.223.8.8,0,0,1-.063.366.192.192,0,0,1-.168.113h-1.61v3.514a2.007,2.007,0,0,0,.192.983.722.722,0,0,0,.687.333,1.157,1.157,0,0,0,.286-.031c.083-.022.158-.043.223-.068s.119-.045.168-.067a.3.3,0,0,1,.124-.031.129.129,0,0,1,.068.017.122.122,0,0,1,.048.067.783.783,0,0,1,.032.134,1.33,1.33,0,0,1,.014.211m-5.282-7.98a.763.763,0,0,1-.156.556.831.831,0,0,1-.57.148.821.821,0,0,1-.56-.144.749.749,0,0,1-.151-.546.763.763,0,0,1,.155-.555.832.832,0,0,1,.57-.149.822.822,0,0,1,.561.144.75.75,0,0,1,.151.546m-.129,8.449a.156.156,0,0,1-.029.1.232.232,0,0,1-.091.068.782.782,0,0,1-.178.041,2.413,2.413,0,0,1-.287.014,2.371,2.371,0,0,1-.283-.014.8.8,0,0,1-.179-.041.209.209,0,0,1-.093-.068.172.172,0,0,1-.024-.1V126.2a.167.167,0,0,1,.024-.091.183.183,0,0,1,.093-.073.761.761,0,0,1,.179-.04,2.186,2.186,0,0,1,.283-.015,2.225,2.225,0,0,1,.287.015.744.744,0,0,1,.178.04.2.2,0,0,1,.091.073.151.151,0,0,1,.029.091Zm-7.352-3.778a2.116,2.116,0,0,0-.405-1.435,1.535,1.535,0,0,0-1.262-.52,1.663,1.663,0,0,0-.755.161,1.616,1.616,0,0,0-.541.431,1.932,1.932,0,0,0-.338.62,2.689,2.689,0,0,0-.134.743Zm1.164.343a.494.494,0,0,1-.136.391.475.475,0,0,1-.314.115H120.7a3.915,3.915,0,0,0,.106.948,1.8,1.8,0,0,0,.352.726,1.574,1.574,0,0,0,.638.463,2.549,2.549,0,0,0,.963.163,3.842,3.842,0,0,0,.8-.073,4.682,4.682,0,0,0,.609-.163c.17-.06.312-.115.422-.163a.656.656,0,0,1,.249-.075.16.16,0,0,1,.088.024.15.15,0,0,1,.058.074.467.467,0,0,1,.033.134,1.753,1.753,0,0,1,.01.213,1.474,1.474,0,0,1-.008.158c0,.043-.009.083-.017.117a.3.3,0,0,1-.036.1.433.433,0,0,1-.063.079,1,1,0,0,1-.228.125,3.318,3.318,0,0,1-.491.173,6.9,6.9,0,0,1-.7.148,5.009,5.009,0,0,1-.844.067,3.877,3.877,0,0,1-1.363-.218,2.516,2.516,0,0,1-.984-.644,2.765,2.765,0,0,1-.6-1.076,4.957,4.957,0,0,1-.2-1.5,4.706,4.706,0,0,1,.211-1.464,3.111,3.111,0,0,1,.606-1.1,2.66,2.66,0,0,1,.959-.694,3.145,3.145,0,0,1,1.255-.242,3.008,3.008,0,0,1,1.265.239,2.386,2.386,0,0,1,.86.642,2.593,2.593,0,0,1,.493.949,4.156,4.156,0,0,1,.158,1.162Zm-6.257,3.429a.166.166,0,0,1-.029.1.213.213,0,0,1-.093.072.87.87,0,0,1-.187.041,2.7,2.7,0,0,1-.3.014c-.124,0-.23,0-.311-.009a1.068,1.068,0,0,1-.207-.037.375.375,0,0,1-.137-.069.586.586,0,0,1-.1-.11l-2.663-3.5v3.5a.156.156,0,0,1-.029.1.232.232,0,0,1-.091.068.782.782,0,0,1-.178.041,2.419,2.419,0,0,1-.288.014,2.356,2.356,0,0,1-.283-.014.788.788,0,0,1-.179-.041.21.21,0,0,1-.093-.068.172.172,0,0,1-.024-.1V123.15a.165.165,0,0,1,.118-.17.747.747,0,0,1,.179-.041,2.175,2.175,0,0,1,.283-.015,2.233,2.233,0,0,1,.288.015.74.74,0,0,1,.178.041.2.2,0,0,1,.091.072.165.165,0,0,1,.029.1v5.708l2.379-2.625a.633.633,0,0,1,.119-.118.69.69,0,0,1,.151-.077.8.8,0,0,1,.206-.043c.079-.008.175-.01.288-.01s.216,0,.3.01a.866.866,0,0,1,.192.036.254.254,0,0,1,.105.063.154.154,0,0,1,.031.1.342.342,0,0,1-.045.168.893.893,0,0,1-.151.2l-2.276,2.291,2.563,3.334a1.741,1.741,0,0,1,.129.194.292.292,0,0,1,.038.137m-8.467-2.88h-.989a3.659,3.659,0,0,0-.826.082,1.71,1.71,0,0,0-.583.239,1.018,1.018,0,0,0-.34.378,1.164,1.164,0,0,0-.108.51,1.019,1.019,0,0,0,.312.784,1.232,1.232,0,0,0,.874.293,1.605,1.605,0,0,0,.843-.233,3.6,3.6,0,0,0,.817-.709Zm1.15,2.894a.154.154,0,0,1-.055.127.385.385,0,0,1-.156.063,1.444,1.444,0,0,1-.288.022,1.57,1.57,0,0,1-.29-.022.34.34,0,0,1-.158-.063.153.153,0,0,1-.051-.127V131.9a3.065,3.065,0,0,1-.922.688,2.491,2.491,0,0,1-1.078.242,2.935,2.935,0,0,1-.9-.129,1.963,1.963,0,0,1-.688-.376,1.7,1.7,0,0,1-.443-.6,1.994,1.994,0,0,1-.158-.814,1.873,1.873,0,0,1,.218-.928,1.781,1.781,0,0,1,.625-.654,3.087,3.087,0,0,1,1-.391,6.242,6.242,0,0,1,1.327-.129h.872v-.493a2.5,2.5,0,0,0-.077-.647,1.118,1.118,0,0,0-.249-.467,1.055,1.055,0,0,0-.445-.281,2.047,2.047,0,0,0-.674-.1,2.609,2.609,0,0,0-.766.1,4.024,4.024,0,0,0-.6.228c-.17.084-.313.158-.428.228a.566.566,0,0,1-.254.1.166.166,0,0,1-.1-.029.216.216,0,0,1-.074-.083.423.423,0,0,1-.046-.142,1.256,1.256,0,0,1-.014-.194,1.2,1.2,0,0,1,.024-.275.4.4,0,0,1,.12-.192,1.62,1.62,0,0,1,.326-.215,3.685,3.685,0,0,1,.534-.228,5.037,5.037,0,0,1,.659-.17,4.232,4.232,0,0,1,1.878.087,1.859,1.859,0,0,1,.771.455,1.746,1.746,0,0,1,.427.74,3.6,3.6,0,0,1,.134,1.032Zm-6.121-.477a1.429,1.429,0,0,1-.029.323.331.331,0,0,1-.083.175.487.487,0,0,1-.168.105,1.367,1.367,0,0,1-.257.082c-.1.022-.2.038-.3.053a2.675,2.675,0,0,1-1.162-.108,1.385,1.385,0,0,1-.575-.393,1.656,1.656,0,0,1-.325-.666,3.928,3.928,0,0,1-.1-.949v-3.684h-.889a.2.2,0,0,1-.17-.113.8.8,0,0,1-.063-.366,1.21,1.21,0,0,1,.017-.223.853.853,0,0,1,.046-.153.2.2,0,0,1,.074-.083.21.21,0,0,1,.1-.024h.881v-1.5a.167.167,0,0,1,.024-.091.2.2,0,0,1,.093-.074.579.579,0,0,1,.179-.046,2.367,2.367,0,0,1,.283-.014,2.419,2.419,0,0,1,.288.014.567.567,0,0,1,.178.046.22.22,0,0,1,.091.074.152.152,0,0,1,.029.091v1.5h1.61a.189.189,0,0,1,.1.024.211.211,0,0,1,.072.083.5.5,0,0,1,.046.153,1.515,1.515,0,0,1,.014.223.8.8,0,0,1-.063.366.192.192,0,0,1-.168.113h-1.61v3.514a2.007,2.007,0,0,0,.192.983.722.722,0,0,0,.688.333,1.154,1.154,0,0,0,.285-.031c.083-.022.158-.043.223-.068s.119-.045.168-.067a.3.3,0,0,1,.124-.031.129.129,0,0,1,.068.017.122.122,0,0,1,.048.067.784.784,0,0,1,.032.134,1.329,1.329,0,0,1,.014.211" transform="translate(-13.698 -20.457)" fill="#fff" fill-rule="evenodd"/>
  <path id="Path_238" data-name="Path 238" d="M127.3,93.739H105.926v20.467H127.3v-3.557H110.389v-4.9H127.3v-3.556H110.389V97.3H127.3ZM46.125,110.372l1.673,3.833h4.464L43.326,93.739h-3.5l-8.936,20.466h4.464l1.673-3.833Zm-1.553-3.556h-6l3-6.865Zm15.395-4.62h10.9a2.452,2.452,0,1,0,0-4.9h-10.9ZM55.5,93.739H70.871A6,6,0,0,1,72.7,105.464a11.919,11.919,0,0,1,4.176,8.741H73.319c-.138-4.929-4.654-8.455-9.438-8.455H59.967v8.455H55.5Zm-37.827,8.47-5.237,12h-3.5L0,93.739H4.464l6.224,14.253,6.224-14.253h1.53l6.224,14.253,6.224-14.253h4.463l-8.935,20.466h-3.5Zm117.983,8.443h6.678a6.679,6.679,0,1,0,0-13.358h-6.678ZM131.2,93.739h11.141a10.233,10.233,0,0,1,0,20.467H131.2Zm-29.108,0H80.715v20.467h21.374v-3.557H85.179v-4.9h16.91v-3.556H85.179V97.3h16.91Z" transform="translate(0 -15.6)" fill="#fff" fill-rule="evenodd"/>
  <path id="Path_240" data-name="Path 240" d="M84.137,23.947a4.459,4.459,0,0,0,.044-6.369,4.577,4.577,0,0,0-6.473,6.472,4.418,4.418,0,0,0,6.429-.1M59.283,8.513a16.2,16.2,0,0,0-22.012,23.73L64.849,59.82,92.426,32.243A16.2,16.2,0,0,0,69.512,9.337C64.829,14.02,62.5,22.854,67.771,27.973a10.608,10.608,0,0,0,11.738,1.951,9.222,9.222,0,1,1,10.631-9.8,14.916,14.916,0,0,1-4.375,11.007,15.2,15.2,0,0,1-21.223.165c-7.173-6.963-4.869-18.686,1.686-25.242a21,21,0,0,1,29.482,0,20.9,20.9,0,0,1,0,29.472L84.218,47.02l12.8,12.8L124.6,32.243a16.2,16.2,0,0,0-22.012-23.73,17.7,17.7,0,0,0-3-3.547,20.84,20.84,0,0,1,28.3,30.562L97.019,66.389,80.934,50.3,64.849,66.389,33.987,35.527a20.84,20.84,0,0,1,28.3-30.562,17.674,17.674,0,0,0-3,3.547" transform="translate(-4.649 0)" fill="#fff" fill-rule="evenodd"/>
</svg>
