<svg id="Group_84" data-name="Group 84" xmlns="http://www.w3.org/2000/svg" width="190.958" height="123.416" viewBox="0 0 190.958 123.416">
  <path id="Path_238" data-name="Path 238" d="M159.33,93.739H132.578v25.617H159.33V114.9H138.164v-6.132H159.33v-4.451H138.164V98.19H159.33Zm-101.6,20.818,2.094,4.8h5.587L54.227,93.739H49.844L38.66,119.354h5.587l2.094-4.8Zm-1.944-4.451h-7.5l3.752-8.593Zm19.268-5.782H88.7a3.068,3.068,0,1,0,0-6.137H75.055ZM69.468,93.739H88.7a7.515,7.515,0,0,1,2.286,14.675,14.918,14.918,0,0,1,5.227,10.94H91.767c-.172-6.169-5.825-10.582-11.812-10.582h-4.9v10.582H69.468Zm-47.345,10.6-6.555,15.014H11.184L0,93.739H5.587l7.789,17.84,7.789-17.84h1.916l7.789,17.84,7.789-17.84h5.586L33.063,119.354H28.679Zm147.669,10.567h8.358a8.36,8.36,0,1,0,0-16.719h-8.358Zm-5.586-21.168H178.15a12.808,12.808,0,0,1,0,25.617H164.206Zm-36.432,0H101.023v25.617h26.752V114.9H106.61v-6.132h21.165v-4.451H106.61V98.19h21.165Z" transform="translate(0 4.06)" fill="#fff" fill-rule="evenodd"/>
  <path id="Path_240" data-name="Path 240" d="M98.277,29.972A5.581,5.581,0,0,0,98.333,22a5.728,5.728,0,0,0-8.1,8.1,5.529,5.529,0,0,0,8.046-.129M67.17,10.654a20.27,20.27,0,0,0-27.55,29.7L74.136,74.871l34.516-34.516a20.276,20.276,0,0,0-28.68-28.669c-5.861,5.861-8.779,16.918-2.178,23.325a13.277,13.277,0,0,0,14.691,2.442,11.542,11.542,0,1,1,13.306-12.268c.364,4.935-2.027,10.326-5.476,13.776a19.026,19.026,0,0,1-26.563.207c-8.978-8.715-6.094-23.388,2.111-31.593a26.282,26.282,0,0,1,36.9,0,26.165,26.165,0,0,1,0,36.887L98.379,58.85,114.4,74.871l34.516-34.516a20.27,20.27,0,0,0-27.55-29.7,22.15,22.15,0,0,0-3.754-4.439,26.083,26.083,0,0,1,35.414,38.251L114.4,83.093,94.269,62.961,74.136,83.093,35.509,44.466A26.084,26.084,0,0,1,70.925,6.215a22.121,22.121,0,0,0-3.755,4.439" transform="translate(1.21 0)" fill="#fff" fill-rule="evenodd"/>
</svg>
